<svg xmlns="http://www.w3.org/2000/svg" xmlns:xlink="http://www.w3.org/1999/xlink" width="112" height="35"><path d="M102.792 0L7.877.002l-.858.01C6.393.02 5.768.07 5.15.167S3.934.45 3.375.716a6.01 6.01 0 0 0-1.511 1.031 5.513 5.513 0 0 0-1.1 1.418A5.53 5.53 0 0 0 .181 4.83a10.68 10.68 0 0 0-.167 1.752L0 7.39v20.225l.014.807c.007.587.063 1.173.167 1.752s.3 1.142.583 1.666.654 1 1.1 1.413c.44.417.952.766 1.51 1.03s1.157.452 1.774.552 1.244.147 1.87.155l.858.01H8.9l95.766-.01a13.2 13.2 0 0 0 1.867-.155 6.65 6.65 0 0 0 1.781-.552 5.86 5.86 0 0 0 1.509-1.031 5.63 5.63 0 0 0 1.103-1.413 5.53 5.53 0 0 0 .578-1.666 11.1 11.1 0 0 0 .173-1.752l.004-.807.007-.957-.01-20.074a11.1 11.1 0 0 0-.173-1.752 5.54 5.54 0 0 0-.578-1.665c-.576-1.053-1.5-1.91-2.612-2.45-.56-.265-1.162-.45-1.78-.55S105.3.02 104.665.013l-.86-.01L102.792 0z" fill="#A6A6A6"/><path d="M7.882 34.234a39.75 39.75 0 0 1-.844-.009 12.61 12.61 0 0 1-1.745-.143 5.75 5.75 0 0 1-1.546-.479 4.865 4.865 0 0 1-1.304-.9 4.709 4.709 0 0 1-.952-1.222 4.79 4.79 0 0 1-.507-1.45 10.2 10.2 0 0 1-.155-1.641l-.014-.8V7.39l.014-.783c.007-.55.06-1.097.154-1.638a4.82 4.82 0 0 1 .507-1.454c.243-.453.563-.866.947-1.223s.825-.662 1.31-.895A5.69 5.69 0 0 1 5.29.92 12.51 12.51 0 0 1 7.04.776l.842-.01 96.77.01a12.31 12.31 0 0 1 1.735.142 5.786 5.786 0 0 1 1.56.48 5.06 5.06 0 0 1 2.254 2.117c.243.455.412.94.5 1.443a10.68 10.68 0 0 1 .162 1.651l.003.78.007.955-.01 20.067c-.01.544-.064 1.086-.16 1.622-.087.508-.257 1-.504 1.46a4.813 4.813 0 0 1-.948 1.212 5.05 5.05 0 0 1-1.306.895 5.73 5.73 0 0 1-1.557.481c-.577.088-1.16.136-1.745.143l-.838.01-1.012.002-94.91-.002z"/><g fill="#fff"><path d="M23.118 17.763c.02-1.484.85-2.855 2.2-3.633-.855-1.145-2.235-1.844-3.725-1.888-1.567-.154-3.087.88-3.885.88-.814 0-2.044-.864-3.368-.838-1.742.053-3.327.96-4.175 2.387-1.805 2.93-.46 7.236 1.27 9.604.865 1.16 1.876 2.455 3.2 2.4 1.295-.05 1.778-.774 3.34-.774 1.548 0 2.002.774 3.352.745 1.4-.02 2.264-1.165 3.1-2.335a9.36 9.36 0 0 0 1.417-2.706c-1.65-.654-2.723-2.17-2.725-3.85zm-2.55-7.078a4.09 4.09 0 0 0 1.04-3.054 4.735 4.735 0 0 0-2.994 1.452 3.9 3.9 0 0 0-1.067 2.941c1.173.012 2.286-.482 3.02-1.34zm18.914 13.062h-4.418l-1.06 2.937h-1.87l4.185-10.866h1.944l4.185 10.866h-1.903l-1.06-2.937zm-3.96-1.355h3.502l-1.726-4.767h-.048l-1.727 4.767z"/><use xlink:href="#B"/><use xlink:href="#B" x="9.301"/><path d="M66.93 23.657c.13 1.078 1.245 1.785 2.77 1.785 1.462 0 2.514-.708 2.514-1.68 0-.844-.634-1.35-2.136-1.695l-1.502-.34c-2.128-.482-3.116-1.415-3.116-2.93 0-1.875 1.743-3.163 4.217-3.163 2.45 0 4.128 1.288 4.185 3.163H72.1c-.105-1.084-1.06-1.74-2.458-1.74s-2.353.663-2.353 1.626c0 .768.6 1.22 2.105 1.566l1.277.294c2.378.527 3.366 1.423 3.366 3.012 0 2.033-1.727 3.306-4.474 3.306-2.57 0-4.306-1.243-4.418-3.208h1.776zm10.86-6.77v1.875h1.607v1.288H77.8v4.367c0 .68.322.995 1.028.995a5.71 5.71 0 0 0 .571-.038v1.28a5.09 5.09 0 0 1-.963.075c-1.7 0-2.378-.603-2.378-2.14v-4.54h-1.23v-1.3h1.23v-1.875H77.8zm2.537 5.837c0-2.493 1.566-4.06 4.008-4.06 2.45 0 4 1.566 4 4.06 0 2.5-1.55 4.06-4 4.06s-4.008-1.56-4.008-4.06zm6.25 0c0-1.7-.836-2.72-2.24-2.72s-2.24 1.017-2.24 2.72c0 1.716.835 2.718 2.24 2.718s2.24-1.002 2.24-2.718zm3.196-3.962h1.654V20.1h.04c.23-.868 1.08-1.465 2.033-1.43a2.95 2.95 0 0 1 .594.06v1.52a2.594 2.594 0 0 0-.78-.098c-.5-.02-1.003.17-1.35.52s-.514.826-.457 1.3v4.7h-1.735V18.75zm12.32 5.595c-.233 1.438-1.727 2.425-3.64 2.425-2.458 0-3.984-1.544-3.984-4.02 0-2.485 1.534-4.097 3.9-4.097 2.338 0 3.808 1.506 3.808 3.908v.557H96.22v.098c-.056.6.162 1.174.596 1.603a2.28 2.28 0 0 0 1.677.641c.842.074 1.635-.38 1.95-1.114h1.647zm-5.863-2.364h4.225a1.84 1.84 0 0 0-.568-1.43 2.1 2.1 0 0 0-1.505-.581 2.213 2.213 0 0 0-1.523.585 1.97 1.97 0 0 0-.63 1.426zM35.305 7.64a2.55 2.55 0 0 1 1.965.716 2.22 2.22 0 0 1 .655 1.878c0 1.668-.962 2.627-2.62 2.627h-2.012V7.64h2.012zm-1.147 4.482h1.05a1.81 1.81 0 0 0 1.395-.529c.356-.364.52-.86.442-1.35a1.58 1.58 0 0 0-.449-1.34 1.817 1.817 0 0 0-1.388-.527h-1.05v3.745z"/><use xlink:href="#C"/><path d="M48.135 12.86h-.86l-.87-2.902h-.066l-.865 2.902h-.852l-1.158-3.94h.84l.753 3.006h.062l.864-3.006h.796l.864 3.006h.066l.75-3.006h.83z"/><use xlink:href="#D"/><path d="M55.155 7.382h.83v5.478h-.83zm1.982 3.508c-.072-.706.3-1.4.932-1.764a2.13 2.13 0 0 1 2.1 0c.643.374 1.004 1.058.932 1.764.073.707-.288 1.392-.93 1.767s-1.458.375-2.102 0-1.005-1.06-.93-1.767zm3.1 0c0-.854-.4-1.354-1.127-1.354s-1.127.5-1.127 1.354c0 .86.406 1.356 1.127 1.356s1.127-.5 1.127-1.356zm1.738.856c0-.7.563-1.118 1.563-1.176l1.138-.062v-.34c0-.416-.293-.65-.86-.65-.463 0-.784.16-.876.438h-.803c.085-.677.764-1.1 1.717-1.1 1.054 0 1.648.492 1.648 1.324v2.692h-.798v-.554h-.066a1.44 1.44 0 0 1-1.262.619 1.324 1.324 0 0 1-.98-.298 1.16 1.16 0 0 1-.421-.881zm2.702-.336v-.33l-1.026.062c-.58.037-.84.22-.84.568 0 .354.328.56.78.56.267.025.534-.052.74-.214a.91.91 0 0 0 .349-.647zm1.915-.52c0-1.245.683-2.034 1.745-2.034a1.41 1.41 0 0 1 1.29.69h.062V7.382h.83v5.478h-.795v-.623h-.066c-.27.44-.778.707-1.32.688-1.07 0-1.745-.8-1.745-2.037zm.857 0c0 .836.42 1.34 1.123 1.34s1.13-.5 1.13-1.335-.437-1.338-1.13-1.338-1.123.506-1.123 1.335z"/><use xlink:href="#C" x="35.046"/><use xlink:href="#D" x="28.761"/><path d="M87.28 7.94v1h.9v.655h-.9v2.026c0 .413.18.593.594.593a2.79 2.79 0 0 0 .316-.018v.648c-.15.025-.3.038-.45.04-.922 0-1.3-.304-1.3-1.064V9.593h-.667v-.655h.667v-1h.83zm2.045-.558h.822v2.17h.066c.226-.465.738-.747 1.28-.706a1.43 1.43 0 0 1 1.092.416 1.28 1.28 0 0 1 .355 1.054v2.543h-.83v-2.352c0-.63-.313-.948-.9-.948a1.02 1.02 0 0 0-.777.269.89.89 0 0 0-.281.73v2.3h-.83V7.382zm8.452 4.415c-.233.743-1 1.223-1.82 1.14-.56.014-1.1-.204-1.473-.596s-.545-.917-.47-1.438a1.74 1.74 0 0 1 .468-1.444 2 2 0 0 1 1.47-.615c1.17 0 1.875.75 1.875 1.986v.27H94.86v.043a1 1 0 0 0 .293.796 1.15 1.15 0 0 0 .826.333 1.03 1.03 0 0 0 1-.478h.798zm-2.918-1.27h2.123a.923.923 0 0 0-.276-.725 1.04 1.04 0 0 0-.758-.295c-.3-.003-.57.103-.774.295s-.318.454-.315.726z"/></g><defs><path id="B" d="M51.482 22.724c0 2.462-1.405 4.043-3.526 4.043-1.096.054-2.13-.485-2.66-1.386h-.04v3.924h-1.735V18.762h1.68v1.317h.032c.553-.896 1.587-1.434 2.69-1.4 2.145 0 3.558 1.59 3.558 4.044zm-1.783 0c0-1.604-.884-2.66-2.233-2.66-1.325 0-2.217 1.077-2.217 2.66 0 1.596.89 2.665 2.217 2.665 1.35 0 2.233-1.047 2.233-2.665z"/><path id="C" d="M38.902 10.89c-.072-.706.29-1.4.932-1.764s1.457-.374 2.1 0 1.004 1.058.932 1.764c.073.707-.287 1.392-.93 1.767s-1.458.375-2.102 0-1.004-1.06-.93-1.767zm3.11 0c0-.854-.41-1.354-1.127-1.354s-1.127.5-1.127 1.354c0 .86.406 1.356 1.127 1.356s1.127-.5 1.127-1.356z"/><path id="D" d="M50.264 8.92h.798v.626h.062c.216-.46.72-.743 1.254-.702.414-.03.82.12 1.103.405a1.23 1.23 0 0 1 .352 1.061v2.55h-.83v-2.355c0-.633-.293-.948-.907-.948a.998.998 0 0 0-.747.283.87.87 0 0 0-.257.715v2.305h-.83V8.92z"/></defs></svg>